<?xml version="1.0" standalone="no"?>
<!DOCTYPE svg PUBLIC "-//W3C//DTD SVG 20010904//EN"
 "http://www.w3.org/TR/2001/REC-SVG-20010904/DTD/svg10.dtd">
<svg version="1.0" xmlns="http://www.w3.org/2000/svg"
 width="615.000000pt" height="615.000000pt" viewBox="0 0 615.000000 615.000000"
 preserveAspectRatio="xMidYMid meet">
<metadata>
Created by potrace 1.11, written by Peter Selinger 2001-2013
</metadata>
<g transform="translate(0.000000,615.000000) scale(0.100000,-0.100000)"
fill="#000000" stroke="none">
<path d="M2964 5803 c-13 -6 -74 -14 -136 -18 -165 -9 -235 -13 -308 -20 -36
-3 -94 -7 -130 -9 -126 -8 -211 -19 -217 -29 -8 -13 -8 -147 1 -352 3 -88 9
-236 11 -330 11 -362 22 -742 30 -985 8 -223 16 -907 20 -1600 4 -726 7 -865
19 -1075 3 -49 8 -153 11 -230 4 -91 10 -142 18 -147 9 -6 9 -8 -1 -8 -7 0
-11 -9 -8 -23 2 -12 7 -40 11 -62 4 -22 13 -46 19 -54 8 -11 8 -13 -1 -7 -7 4
-13 2 -13 -3 0 -6 5 -11 12 -11 8 0 9 -3 1 -11 -11 -11 -5 -59 8 -59 5 0 10
39 11 88 l2 87 6 -90 6 -90 3 70 c1 39 4 84 5 100 3 28 14 155 20 232 1 18 5
35 8 38 3 3 4 -64 3 -150 0 -85 1 -153 3 -151 4 5 10 35 11 60 1 31 14 9 17
-29 1 -22 -2 -33 -9 -28 -6 3 -7 1 -3 -6 9 -15 29 -3 22 14 -2 7 -1 16 4 21
13 13 19 134 25 479 4 171 8 371 11 445 3 74 6 396 7 715 l2 580 73 5 c40 3
77 1 83 -4 6 -6 9 -6 9 0 0 5 12 10 28 11 34 1 135 13 222 27 19 3 78 8 130
11 109 5 126 8 137 20 4 4 2 5 -4 1 -7 -4 -13 -3 -13 3 0 5 6 12 13 14 10 4
10 6 0 6 -25 2 -13 16 15 17 15 1 54 3 87 5 33 1 52 4 43 7 -10 2 -18 12 -18
22 0 13 5 17 14 14 8 -3 22 -2 31 3 11 7 1 9 -34 9 -27 -1 -53 -5 -58 -10 -5
-5 1 -7 15 -3 23 5 27 0 14 -18 -10 -14 -82 -18 -82 -4 0 5 5 7 10 4 6 -3 10
1 10 10 0 9 5 13 10 10 6 -3 10 -1 10 4 0 14 -17 14 -25 1 -4 -6 -11 -8 -16
-4 -5 3 -8 0 -7 -7 2 -7 -6 -14 -17 -16 -16 -3 -17 -2 -5 6 16 12 15 12 -48
16 -23 1 -46 -3 -49 -8 -3 -6 -1 -7 5 -3 6 3 13 3 16 -2 2 -4 -4 -9 -15 -9
-10 -1 -19 5 -19 13 0 10 -5 9 -20 -6 -21 -21 -41 -19 -39 3 0 9 2 9 5 0 3 -7
12 -9 20 -6 33 12 8 18 -84 19 -76 1 -348 9 -432 13 -13 1 -15 30 -17 199 -1
108 -4 328 -7 487 -4 160 -9 421 -11 580 -3 160 -8 416 -10 569 -5 277 -2 333
16 305 6 -10 9 -11 9 -1 0 14 21 12 32 -3 5 -6 8 -6 8 1 0 8 41 12 133 13 72
1 150 3 172 5 22 1 46 -2 54 -8 12 -9 13 -8 7 2 -6 10 -1 13 20 12 47 -3 56
-1 48 13 -5 9 -4 9 5 1 8 -7 25 -9 47 -4 19 5 37 4 40 -1 3 -5 8 -8 12 -5 4 2
39 7 78 10 39 3 110 15 157 25 48 10 87 17 87 14 0 -3 7 0 15 7 10 8 30 10 58
6 29 -4 38 -3 27 4 -8 5 -10 10 -4 10 5 0 16 -6 23 -12 11 -10 13 -10 7 0 -5
9 4 12 33 12 23 0 41 -4 41 -10 0 -5 5 -10 11 -10 8 0 9 4 0 13 -6 8 -8 16 -5
20 3 3 -3 3 -15 0 -12 -3 -21 -3 -21 0 0 6 119 44 159 52 9 2 36 8 61 15 59
16 89 22 122 24 15 1 30 5 34 9 4 4 20 7 35 7 32 0 47 16 30 33 -9 9 -11 8 -6
-5 6 -14 2 -18 -14 -18 -12 0 -21 6 -21 13 0 8 -4 7 -10 -3 -8 -13 -10 -12
-10 3 0 19 -34 24 -45 6 -4 -6 -23 -8 -44 -5 -20 3 -46 5 -58 6 -16 0 -20 5
-17 23 2 12 2 16 -2 10 -3 -7 -12 -13 -20 -13 -9 0 -12 4 -9 10 4 7 -2 7 -19
0 -16 -6 -27 -6 -31 0 -4 7 -13 7 -24 0 -10 -5 -20 -8 -22 -6 -2 3 -33 7 -69
11 -78 7 -107 12 -180 27 -66 13 -146 21 -349 32 -19 1 -45 -4 -57 -11z m96
-2555 c0 -4 -11 -3 -24 2 -15 5 -27 5 -35 -3 -8 -8 -14 -8 -23 2 -11 11 -10
13 4 8 9 -3 22 0 28 8 9 11 16 12 31 2 10 -6 19 -15 19 -19z m-654 -2223 c-3
-28 -16 -47 -16 -22 0 16 10 47 15 47 2 0 2 -11 1 -25z m-73 -45 c3 -11 0 -23
-6 -27 -7 -3 -9 -3 -5 2 4 4 3 16 -3 26 -5 11 -6 19 -1 19 6 0 12 -9 15 -20z
m-23 -51 c0 -6 -4 -7 -10 -4 -5 3 -10 11 -10 16 0 6 5 7 10 4 6 -3 10 -11 10
-16z"/>
<path d="M3760 5751 c0 -5 5 -13 10 -16 6 -3 10 -2 10 4 0 5 -4 13 -10 16 -5
3 -10 2 -10 -4z"/>
<path d="M3863 5743 c9 -2 23 -2 30 0 6 3 -1 5 -18 5 -16 0 -22 -2 -12 -5z"/>
<path d="M4006 5711 c-3 -4 6 -6 19 -3 14 2 25 6 25 8 0 8 -39 4 -44 -5z"/>
<path d="M4046 5685 c-3 -8 5 -12 24 -11 16 0 26 5 23 9 -3 5 11 7 30 6 20 -2
39 0 43 4 5 4 -20 7 -53 6 -38 -1 -64 -7 -67 -14z"/>
<path d="M3820 5650 c-9 -6 -10 -10 -3 -10 6 0 15 5 18 10 8 12 4 12 -15 0z"/>
<path d="M3810 5620 c0 -5 5 -10 10 -10 6 0 10 5 10 10 0 6 -4 10 -10 10 -5 0
-10 -4 -10 -10z"/>
<path d="M3730 5549 c0 -5 5 -7 10 -4 6 3 10 8 10 11 0 2 -4 4 -10 4 -5 0 -10
-5 -10 -11z"/>
<path d="M4180 5550 c-12 -8 -11 -10 8 -10 12 0 22 5 22 10 0 13 -11 13 -30 0z"/>
<path d="M3360 3320 c-9 -6 -10 -10 -3 -10 6 0 15 5 18 10 8 12 4 12 -15 0z"/>
<path d="M3363 3303 c-21 -8 -15 -22 7 -16 13 3 20 0 20 -8 0 -11 2 -11 10 1
13 21 -9 35 -37 23z"/>
<path d="M3440 3300 c8 -5 24 -10 34 -10 26 0 18 6 -19 14 -22 5 -26 4 -15 -4z"/>
<path d="M3496 3285 c-3 -8 6 -11 22 -9 15 1 36 2 46 3 31 2 9 14 -28 16 -20
1 -37 -4 -40 -10z"/>
<path d="M3335 3260 c-4 -6 -11 -8 -16 -5 -5 4 -9 1 -9 -4 0 -17 27 -13 34 4
6 17 0 20 -9 5z"/>
<path d="M3156 3212 c-3 -4 4 -9 15 -9 23 -2 25 3 4 10 -8 4 -16 3 -19 -1z"/>
<path d="M3225 3210 c4 -6 11 -8 16 -5 14 9 11 15 -7 15 -8 0 -12 -5 -9 -10z"/>
<path d="M3605 3210 c-3 -5 -1 -10 4 -10 6 0 11 5 11 10 0 6 -2 10 -4 10 -3 0
-8 -4 -11 -10z"/>
<path d="M3268 3203 c7 -3 16 -2 19 1 4 3 -2 6 -13 5 -11 0 -14 -3 -6 -6z"/>
<path d="M2391 834 c0 -11 3 -14 6 -6 3 7 2 16 -1 19 -3 4 -6 -2 -5 -13z"/>
<path d="M2303 735 c0 -30 6 -28 12 4 2 11 0 21 -4 21 -5 0 -8 -11 -8 -25z"/>
<path d="M2331 744 c0 -11 3 -14 6 -6 3 7 2 16 -1 19 -3 4 -6 -2 -5 -13z"/>
<path d="M2331 704 c0 -11 3 -14 6 -6 3 7 2 16 -1 19 -3 4 -6 -2 -5 -13z"/>
<path d="M2331 664 c0 -11 3 -14 6 -6 3 7 2 16 -1 19 -3 4 -6 -2 -5 -13z"/>
<path d="M2340 505 c0 -8 4 -15 10 -15 5 0 7 7 4 15 -4 8 -8 15 -10 15 -2 0
-4 -7 -4 -15z"/>
<path d="M2349 478 c-5 -13 -4 -60 1 -63 4 -2 6 8 5 23 -1 15 3 30 9 34 7 5 7
8 -1 8 -7 0 -13 -1 -14 -2z"/>
<path d="M2333 395 c0 -8 4 -12 9 -9 5 3 6 10 3 15 -9 13 -12 11 -12 -6z"/>
</g>
</svg>
